<?xml version="1.0" encoding="UTF-8"?>
<!-- Generator: Adobe Illustrator 15.0.0, SVG Export Plug-In . SVG Version: 6.00 Build 0)  -->
<!DOCTYPE svg PUBLIC "-//W3C//DTD SVG 1.1//EN" "http://www.w3.org/Graphics/SVG/1.1/DTD/svg11.dtd">
<svg version="1.1" id="Слой_1" xmlns="http://www.w3.org/2000/svg" xmlns:xlink="http://www.w3.org/1999/xlink" x="0px" y="0px" width="149.08px" height="114.396px" viewBox="0 403.396 149.08 114.396" enable-background="new 0 403.396 149.08 114.396" xml:space="preserve">
<g>
	<g>
		<path fill="#032E4F" d="M39.9,39.426l-0.865-1.936l-4.161,2.06l0.906,1.771L39.9,39.426z M109.433,469.291H80.44    c-0.58,0-1.049,0.47-1.049,1.049s0.469,1.049,1.049,1.049h28.992c0.58,0,1.049-0.47,1.049-1.049S110.013,469.291,109.433,469.291z     M85.237,162.474c-0.293-0.194-0.814-0.067-0.814-0.067s-4.846,0.666-9.869,4.7c-3.946,3.168-6.198,8.432-6.198,8.432    s-0.144,0.394,0.017,0.682c0.262,0.471,0.855,0.495,1.27,0.219c0.24-0.16,0.379-0.543,0.379-0.543s0.988-2.019,2.736-4.266    c1.045-1.346,2.415-2.747,3.867-3.916c3.438-2.771,8.076-3.641,8.076-3.641s0.373-0.084,0.627-0.326    C85.543,163.542,85.903,162.919,85.237,162.474z M12.652,97.71c-0.512,0-0.927,0.416-0.927,0.928c0,0.512,0.415,0.926,0.927,0.926    h16.064c0.512,0,0.927-0.414,0.927-0.926c0-0.512-0.415-0.928-0.927-0.928H12.652z M54.59,155.802c0,1.982,1.607,3.59,3.59,3.59    c1.983,0,3.59-1.607,3.59-3.59c0-1.983-1.609-3.59-3.59-3.59C56.198,152.212,54.59,153.819,54.59,155.802z M59.965,155.802    c0,0.984-0.799,1.785-1.785,1.785c-0.986,0-1.785-0.799-1.785-1.785c0-0.986,0.799-1.785,1.785-1.785    C59.166,154.017,59.965,154.815,59.965,155.802z M80.987,506.946H57.921c-0.479,0-0.867,0.388-0.867,0.866    c0,0.478,0.389,0.865,0.867,0.865h23.066c0.479,0,0.865-0.388,0.865-0.865C81.853,507.334,81.466,506.946,80.987,506.946z     M46.159,52.827l-0.948-1.896l-4.067,2.237l0.982,1.73L46.159,52.827z M7.201,71.511c3.393,8.414,12.173,20.277,28.048,26.643    c12.764,5.119,30.494,5.414,45.174-1.859c15.094-7.477,22.682-21.883,24.814-28.113c2.431-7.098,2.38-15.409,2.38-15.409    s0.136-2.192-1.36-3.981c-1.064-1.273-3.912-2.321-3.912-2.321s-9.52-3.374-21.621-4.498c-16.125-1.499-36.004-0.857-36.004-0.857    s-0.809-4.903-3.315-7.561c-1.051-1.114-3.525-1.947-5.913-1.799c-2.414,0.149-4.736,1.287-4.736,1.287s0.254-2.507,1.228-4.579    c0.748-1.592,2.274-2.876,2.274-2.876s0.247-0.3,0.247-0.618c0-0.663-0.291-1.049-1.106-0.795    c-0.549,0.171-0.995,0.631-0.995,0.631s-1.319,1.399-2.086,3.142c-0.818,1.858-1.086,4.066-1.086,4.066l-4.243-6.755l-1.647,0.865    l4.16,6.467c0,0-2.448-1.027-4.863-0.949c-2.018,0.065-4.075,1.237-4.075,1.237s-0.19,0.682,0.046,1.109    c0.192,0.347,0.819,0.456,0.819,0.456s2.038-1.03,4.2-0.989c2.163,0.042,4.45,1.153,4.45,1.153s-2.168,1.877-3.237,3.984    c-1.094,2.156-1.088,4.543-1.088,4.543s-8.995,0.642-16.759,4.254c-1.541,0.717-2.422,1.781-2.926,2.792    c-0.3,0.602-1.481,3.163,0.036,11.423C4.671,64.682,5.87,68.21,7.201,71.511z M105.092,60.422    c0.388-1.953-1.907,13.691-11.813,23.527C79.733,97.4,64.246,99.359,66.499,98.898c-4.298,0.879-10.016,1.354-15.471,0.986    c-10.467-0.707-20.396-6.169-20.396-6.169S19.242,87.66,12.81,77.781c-2.779-4.269-4.924-9.111-6.035-13.369    c-1.354-5.191-1.352-9.416-1.352-9.416s3.419,2.568,9.552,3.852c9.802,2.051,24.101,3.192,24.101,3.192s1.434,1.58,2.963,3.216    c1.981,2.117,4.458,4.3,7.664,2.975c2.767-1.145,2.719-5.737,2.719-5.737l11.369,0.042l0.33,0.864c0,0-7.785,4.286-2.754,12.134    c4.308,6.72,11.857,1.459,11.857,1.459s1.112,0.41,2.13,0.279c1.08-0.137,2.07-0.814,2.07-0.814s2.602,0.982,4.75,2.91    c2.236,2.005,4.023,4.957,4.023,4.957l5.932-3.871c0,0-2.436-4.07-2.934-7.773c-0.422-3.151,1.08-6.025,1.08-6.025    s2.867-0.957,3.959-2.701c1.281-2.043,0.82-4.92,0.82-4.92s3.35-0.73,6.197-1.803c2.357-0.887,4.307-2.151,4.307-2.151    S105.606,57.82,105.092,60.422z M42.207,62.411l7.978,0.247c0,0,0.226,3.194-1.127,3.773c-2.387,1.023-4.338-1.344-4.338-1.344    L42.207,62.411z M66.198,63.21c-0.164-0.405-0.225-0.924-0.225-0.924s7.934-0.225,15.037-1.012    c6.226-0.689,11.738-1.953,11.738-1.953s0.874,2.428-0.12,3.692c-1.12,1.424-4.123,1.703-4.123,1.703s0.678,3.39-2.855,5.245    c-3.369,1.768-6.783-0.508-6.783-0.508s0.843,3.057-1.393,4.951c-1.498,1.269-4.54,0.279-4.54,0.279s-5.545,5.65-10.093-0.758    c-4.299-6.055,3.915-9.705,3.915-9.705S66.417,63.753,66.198,63.21z M65.686,60.269c0,0,0.447-2.689,2.204-3.438    c3.621-1.544,5.746,0.761,5.746,0.761s0.14-6.279,5.728-6.39c5.676-0.112,6.258,5.524,6.258,5.524s2.447-1.084,4.197-0.865    c1.533,0.191,2.394,1.689,2.394,1.689s-5.455,1.053-11.417,1.664C73.609,59.951,65.686,60.269,65.686,60.269z M83.276,76.038    c2.022,0.864,4.158,1.942,4.158,1.942s-1.211-1.83-2.004-3.405c-0.6-1.191-0.838-2.237-0.838-2.237s0.617-0.068,1.25-0.35    c0.664-0.295,1.346-0.804,1.346-0.804s-0.015,1.849,0.529,3.709c0.711,2.429,2.023,5.023,2.023,5.023l-2.924,1.937    c0,0-0.959-1.812-2.892-3.534c-1.833-1.632-4.647-3.181-4.647-3.181l0.453-0.453C79.731,74.685,81.458,75.259,83.276,76.038z     M80.679,72.914l0.043-0.74c0,0,0.448,0.184,0.936,0.249c0.576,0.077,1.205,0.038,1.205,0.038l0.412,1.566L80.679,72.914z     M59.919,43.002c3.164,0.035,10.452,0.029,17.706,0.685c6.444,0.582,12.794,1.764,17.253,2.775    c9.98,2.264,12.357,4.919,10.18,6.524c-2.961,2.181-10.746,4.152-10.746,4.152s-0.922-1.958-2.631-2.666    c-2.119-0.88-4.906-0.342-4.906-0.342s-1.967-5.035-7.209-4.818c-6.605,0.271-7.374,5.438-7.374,5.438s-3.538-1.148-6.285,0.747    c-1.989,1.372-2.283,4.896-2.283,4.896s-2.891,0.145-5.808,0.164c-2.972,0.021-5.973-0.082-5.973-0.082l-6.179-17.382    C45.667,43.092,52.663,42.922,59.919,43.002z M26.563,39.167c2.581-4.417,8.83-6.026,11.167-5.482    c3.57,0.831,3.889,3.977,5.856,9.426c2.537,7.025,6.241,17.281,6.241,17.281L39.9,59.98c0,0-5.297-5.645-9.271-10.176    c-0.257-0.293-0.511-0.577-0.762-0.856l3.295-2.142l-1.136-1.791l-3.506,2.424C26.128,44.712,24.649,42.443,26.563,39.167z     M7.138,49.32c4.501-2.399,16.944-4.498,16.944-4.498s0.888,2.016,2.62,4.051c3.809,4.478,10.273,11.107,10.273,11.107    s-12.293-1.25-21.044-3.068C10.15,55.711,1.455,52.349,7.138,49.32z M109.433,474.032H80.44c-0.58,0-1.049,0.47-1.049,1.049    s0.469,1.048,1.049,1.048h28.992c0.58,0,1.049-0.469,1.049-1.048S110.013,474.032,109.433,474.032z M63.39,449.627H34.398    c-0.58,0-1.049,0.47-1.049,1.048c0,0.58,0.469,1.049,1.049,1.049H63.39c0.58,0,1.049-0.469,1.049-1.049    C64.439,450.097,63.97,449.627,63.39,449.627z M84.498,461.359h23.433c1.008,0,1.823-0.816,1.823-1.824v-13.401    c0-1.008-0.815-1.824-1.823-1.824H84.498c-1.006,0-1.822,0.816-1.822,1.824v13.401C82.675,460.543,83.492,461.359,84.498,461.359z     M91.519,448.96c3.021,0,5.469,2.449,5.469,5.471s-2.446,5.471-5.469,5.471c-3.021,0-5.471-2.449-5.471-5.471    S88.498,448.96,91.519,448.96z M63.39,439.962H34.398c-0.58,0-1.049,0.47-1.049,1.049s0.469,1.049,1.049,1.049H63.39    c0.58,0,1.049-0.47,1.049-1.049S63.97,439.962,63.39,439.962z M69.269,83.17c-2.116,0-3.831,1.716-3.831,3.831    s1.715,3.83,3.831,3.83c2.116,0,3.831-1.715,3.831-3.83S71.385,83.17,69.269,83.17z M69.269,88.669    c-0.921,0-1.668-0.746-1.668-1.668s0.747-1.668,1.668-1.668s1.668,0.746,1.668,1.668S70.19,88.669,69.269,88.669z M109.142,95.754    c0-0.558-0.451-1.009-1.009-1.009H86.878c-0.557,0-1.009,0.451-1.009,1.009s0.452,1.009,1.009,1.009h21.255    C108.69,96.763,109.142,96.312,109.142,95.754z M81.461,99.4c-0.5,0-0.905,0.406-0.905,0.906s0.405,0.906,0.905,0.906h11.944    c0.5,0,0.906-0.406,0.906-0.906S93.907,99.4,93.407,99.4H81.461z M109.433,483.697H80.44c-0.58,0-1.049,0.469-1.049,1.048    s0.469,1.049,1.049,1.049h28.992c0.58,0,1.049-0.47,1.049-1.049S110.013,483.697,109.433,483.697z M109.433,478.956H80.44    c-0.58,0-1.049,0.47-1.049,1.048c0,0.58,0.469,1.049,1.049,1.049h28.992c0.58,0,1.049-0.469,1.049-1.049    C110.481,479.426,110.013,478.956,109.433,478.956z M108.413,170.437c-1.445,0-2.619,1.173-2.619,2.619    c0,1.445,1.174,2.617,2.619,2.617s2.617-1.172,2.617-2.617C111.03,171.609,109.856,170.437,108.413,170.437z M108.413,174.19    c-0.627,0-1.137-0.509-1.137-1.135c0-0.628,0.51-1.137,1.137-1.137s1.135,0.509,1.135,1.137    C109.547,173.682,109.04,174.19,108.413,174.19z M38.708,144.007c-0.002,0.018-0.004,0.033-0.012,0.063    c0.002-0.012,0.008-0.021,0.01-0.031C38.707,144.027,38.708,144.017,38.708,144.007z M63.677,206.366    c0.335,0.284,0.835,0.246,1.118-0.088c0.285-0.334,0.246-0.834-0.086-1.119l-14.607-12.724c-0.333-0.285-0.834-0.245-1.117,0.087    c-0.285,0.332-0.246,0.834,0.086,1.119L63.677,206.366z M63.39,435.222H34.398c-0.58,0-1.049,0.47-1.049,1.05    c0,0.577,0.469,1.048,1.049,1.048H63.39c0.58,0,1.049-0.471,1.049-1.048C64.439,435.69,63.97,435.222,63.39,435.222z     M36.143,233.934c0.635,0,1.15-0.515,1.15-1.149c0-0.636-0.516-1.15-1.15-1.15c-0.637,0-1.151,0.515-1.151,1.15    C34.992,233.419,35.506,233.934,36.143,233.934z M37.133,225.167c0-0.635-0.515-1.15-1.15-1.15c-0.635,0-1.15,0.516-1.15,1.15    c0,0.636,0.516,1.15,1.15,1.15C36.619,226.317,37.133,225.803,37.133,225.167z M100.789,413.461c0-2.887-2.343-5.228-5.229-5.228    s-5.227,2.341-5.227,5.228c0,2.888,2.34,5.229,5.227,5.229S100.789,416.349,100.789,413.461z M92.065,413.462    c0-1.931,1.564-3.496,3.494-3.496c1.933,0,3.496,1.565,3.496,3.496c0,1.93-1.563,3.495-3.496,3.495    C93.63,416.957,92.065,415.392,92.065,413.462z M107.291,417.261c0,0.554,0.449,1.002,1.004,1.002h14.313    c0.556,0,1.002-0.448,1.002-1.002c0-0.555-0.446-1.004-1.002-1.004h-14.313C107.74,416.257,107.291,416.706,107.291,417.261z     M126.985,439.386v-18.935H18.943v56.043c0,0-1.656,1.275-2.289,2.761c-0.658,1.538-0.293,3.287-0.293,3.287    s-1.658,0.839-2.256,1.921c-0.676,1.219-0.297,2.699-0.297,2.699s-2.482-1.351-4.822-1.773c-1.541-0.279-3.021,0.15-3.693,0.532    c-2.756,1.567-1.953,4.956-1.391,5.92c1.203,2.067,3.318,2.678,4.412,2.306c1.34-0.452,1.518-2.365,1.338-2.684    c-0.352-0.629-1.498-1.201-1.498-1.201s-0.332-0.362-0.188-0.476c0.129-0.101,0.736,0.05,0.736,0.05s1.299,0.527,2.344,0.973    c0.764,0.326,1.363,0.607,1.363,0.607s-1.518,1.021-1.852,2.225c-0.416,1.5,0.332,3.246,0.332,3.246s-1.102,1.065-1.604,2.586    c-0.557,1.685-0.447,3.898,1.197,5.245c1.918,1.57,5.273,2.825,8.369,3.528c4.373,0.993,10.094,1.424,12.035,1.412    c1.709-0.013,3.545-0.256,4.941-0.838c3.17-1.32,3.568-5.188,3.568-5.188l0.668-1.033h65.342l-1.156,3.344l7.416,2.432l1.52-5.652    h14.103v-38.172c0,0,0.705-0.673,1.664-1.413c0.853-0.657,1.905-1.33,2.848-2.213c-1.937,1.816,7.107-4.836,3.828-13.969    C133.132,440.007,126.985,439.386,126.985,439.386z M9.005,488.499c0,0-1.049-0.368-1.658-0.175    c-0.633,0.202-1.139,0.916-1.064,1.57C6.355,490.531,7,491.112,7,491.112s0.725,0.284,1.02,0.563    c0.061,0.059,0.457,1.001-0.467,1.078c0.285-0.022-1.764-0.529-2.414-1.741c-0.389-0.723-0.578-3.185,1.26-4.004    c1.271-0.566,3.033,0.094,3.033,0.094l4.316,1.701c0,0,0.014,0.453-0.074,0.818c-0.059,0.25-0.23,0.458-0.23,0.458L9.005,488.499z     M29.492,508.278c-3.359-0.025-8.684-1.032-12.311-2.131c-3.221-0.976-5.934-2.294-6.338-4.474    c-0.277-1.499,1.02-3.208,1.02-3.208s0.924,0.939,2.455,1.714c2.09,1.057,5.309,2.12,8.863,2.976    c3.145,0.756,6.469,1.47,9.119,1.63c2.805,0.169,4.848-0.24,4.848-0.24S35.771,508.326,29.492,508.278z M40.24,498.89    c-1.555,4.189-5.295,4.942-14.879,2.776c-11.932-2.696-13.154-5.539-13.279-6.233c-0.354-1.958,2.801-3.756,3.063-4.289    c0.512-1.037,0.244-2.462,0.244-2.462s-0.51-3.086,0.662-4.141c1.256-1.131,4.199-0.236,4.199-0.236s6.201,1.43,10.881,3.892    C38.966,492.316,41.167,496.393,40.24,498.89z M41.039,493.604c0,0-3.926-4.248-9.635-7.11    c-5.748-2.882-13.281-4.376-13.281-4.376s0.041-3.767,2.643-4.082c3.268-0.396,12.975,4.394,18.15,9.965    C41.83,491.139,41.039,493.604,41.039,493.604z M41.404,500.838c0,0,0.746-0.795,0.912-1.741c0.244-1.396-0.063-3.122-0.063-3.122    s1.596-2.43,0.908-4.888c-0.627-2.241-3.441-4.435-5.396-6.257c-3.779-3.521-8.074-6.181-11.738-7.563    c-2.27-0.854-5.047-1.106-5.047-1.106v-53.764h104.242v16.746c0,0-5.633-0.266-10.131,5.576    c-5.188,6.738,0.395,13.215,0.605,20.981c0.146,5.332-1.719,11.371-1.719,11.371l-7.902,23.766L41.404,500.838L41.404,500.838z     M125.526,500.838h-11.608c0,0,3.979-16.661,7.396-26.67c1.465-4.298,4.215-7.369,4.215-7.369v34.039H125.526z M133.728,455.553    c-1.481,3.432-6.014,6.08-6.014,6.08s-3.154,2.854-5.227,6.273c-2.557,4.216-4.135,9.166-4.135,9.166s-1.131,3.75-2.427,8.559    c-2.313,8.59-5.413,20.557-5.413,20.557l-3.951-1.217l4.862-15.135c0,0,2.521-7.299,4.152-12.571    c0.664-2.146,2.424-7.443,1.76-13.613c-0.256-2.375-0.971-4.734-1.478-6.729c-0.391-1.551-2.432-5.871,0.699-11.052    c1.969-3.258,7.139-6.565,12.799-3.931C133.208,443.73,136.039,450.197,133.728,455.553z M133.64,414.98    c0.504,0,0.912-0.408,0.912-0.911c0-0.504-0.408-0.912-0.912-0.912h-15.772c-0.502,0-0.91,0.408-0.91,0.912    c0,0.503,0.408,0.911,0.91,0.911H133.64z M23.409,189.297c-0.268-0.359-0.709-0.485-0.984-0.28l-7.617,5.676    c-0.275,0.205-0.281,0.663-0.014,1.023c0.268,0.359,0.709,0.485,0.984,0.279l7.617-5.674    C23.67,190.115,23.677,189.657,23.409,189.297z M90.001,36.856c3.417,0.415,6.027-3.513,6.027-3.513l19.443,11.149    c0,0,2.764,1.966,5.164,1.608c2.125-0.317,6.54-4.799,3.424-8.062c-2.69-2.817-9.138-4.696-9.138-4.696L49.676,3.191    c0,0,10.489,10.486,19.085,18.651C75.116,27.879,83.373,36.052,90.001,36.856z M98.831,29.004l20.705,8.788    c0,0,2.357,0.911,2.967,1.866c0.789,1.238-0.48,4.123-2.253,4.138c-1.876,0.016-4.339-1.556-4.339-1.556l-18.51-10.38    L98.831,29.004z M96.579,27.961c0,0-0.66,1.502-1.495,2.927c-0.753,1.287-1.69,2.511-1.69,2.511s-1.518,1.577-3.465,1.375    c-2.488-0.258-5.541-2.309-5.541-2.309L58.848,9.727L96.579,27.961z M54.152,72.956l1.071-2.595l-1.854-0.742l-1.071,2.431    l-8.897-1.854c0,0-1.153-0.033-1.153,0.33c0,0.336,1.153,1.071,1.153,1.071s-6.572,0.788-9.191,7.552    c-3.51,9.065,4.976,15.803,9.158,17.223c7.111,2.414,14.292,0.201,16.79-6.02c1.552-3.865-0.033-10.27-0.033-10.27    s1.063,0.59,1.574,0.531c0.371-0.042,0.238-0.737,0.238-0.737L54.152,72.956z M47.644,72.997l5.149,1.317l3.46,3.749l-1.235-0.165    l-0.042,1.359l-3.171-3.871c0,0-1.112,0.185-2.307,0.251c-1.386,0.077-2.883,0.036-2.883,0.036s0.61-0.383,1.136-0.764    c0.524-0.381,0.964-0.76,0.964-0.76L47.644,72.997z M58.482,88.898c-2.192,6.066-10.708,7.898-16.372,4.885    c-5.508-2.93-8.707-10.824-4.856-16.121c2.163-2.975,7.548-4.295,7.548-4.295l1.318,0.577c0,0-1.127,0.767-2.159,1.542    c-0.87,0.655-1.754,1.383-1.754,1.383l8.732,0.247l5.231,6.097l-0.042-4.119l1.112,0.164    C57.241,79.257,60.392,83.611,58.482,88.898z M36.143,216.081c-0.637,0-1.151,0.515-1.151,1.15c0,0.637,0.515,1.15,1.151,1.15    c0.635,0,1.15-0.516,1.15-1.15C37.293,216.598,36.778,216.081,36.143,216.081z M63.39,444.886H34.398    c-0.58,0-1.049,0.471-1.049,1.049c0,0.579,0.469,1.05,1.049,1.05H63.39c0.58,0,1.049-0.471,1.049-1.05    C64.439,445.356,63.97,444.886,63.39,444.886z M100.181,165.597c-2.814,0-5.099,2.281-5.099,5.098    c0,2.817,2.283,5.098,5.099,5.098c2.814,0,5.098-2.281,5.098-5.098C105.278,167.878,102.996,165.597,100.181,165.597z     M100.181,173.987c-1.818,0-3.293-1.475-3.293-3.293c0-1.818,1.475-3.293,3.293-3.293c1.819,0,3.293,1.475,3.293,3.293    C103.474,172.512,102,173.987,100.181,173.987z M62.251,504.986c0-0.479-0.389-0.866-0.867-0.866H48.712    c-0.479,0-0.867,0.388-0.867,0.866c0,0.478,0.389,0.864,0.867,0.864h12.672C61.863,505.852,62.251,505.465,62.251,504.986z     M5.313,226.374c0.981,1.262,2.22,2.82,3.439,4.343c0.163,0.198,0.326,0.396,0.489,0.596c0.738,0.905,1.465,1.815,2.11,2.633    c1.313,1.624,2.262,2.787,2.262,2.787l-0.07,0.45l0.101,2.211h1.886c-0.047-0.807-0.094-1.613-0.145-2.414    c-0.524-8.396-1.324-16.089-1.324-16.089l-0.825-9.901c0,0,0.003-0.799-0.371-1.123c-0.936-0.808-1.335,0.304-1.392,0.838    c-0.079,0.746,0.081,1.744,0.081,1.744l1.777,21.074l-6.855-8.314c0,0-1.028-1.25-1.458-2.74    c-0.336-1.168-0.097-2.656-0.097-2.656l4.188-20.375c0,0,0.221-1.772,0.92-3.109c0.594-1.139,1.684-1.873,1.684-1.873    l10.695-8.221c0,0,2.244,0.754,4.203,1.195c1.264,0.285,2.557,0.328,2.557,0.328s0.004,0.32,0.177,0.606    c0.14,0.232,0.458,0.442,0.458,0.442l-6.854,12.282c0,0-0.462,0.751-0.506,1.452c-0.035,0.57,0.346,1.118,0.346,1.118l6.125,9.903    l0.622,25.832h1.743l-0.302-13.36l-0.349-9.901c0,0,0.776,0.033,1.057-0.626c0.305-0.718,0.117-2.136,0.117-2.136l0.604-12.663    l3.172,8.569c0,0,0.448,0.911,0.987,0.961c0.474,0.045,1.044-0.771,1.044-0.771l4.801-9.45c0,0,0.27-0.873,0.031-1.598    c-0.166-0.508-0.864-0.941-0.864-0.941s-2.101-2.209-3.788-4.178c-1.398-1.631-2.439-3.082-2.439-3.082s0.244-0.329,0.355-0.824    c0.084-0.383,0.041-0.961,0.041-0.961l9.363-1.349c0,0,4.816,2.928,9.613,6.919c5.816,4.834,11.81,10.895,11.81,10.895    s1.858,1.958,3.327,2.282c1.406,0.31,2.426-1.014,2.426-1.014l10.194-13.21l6.703,5.197l-14.52,19.717    c0,0-1.391,2.027-2.971,2.358c-1.65,0.344-3.494-1.011-3.494-1.011L50.503,207.79c0,0-0.648-0.31-1.117-0.233    c-0.398,0.065-1.15,0.755-0.061,1.638c1.303,1.055,3.876,2.443,3.876,2.443s0.119,12.047-0.442,23.486    c-0.07,1.442-0.156,2.87-0.25,4.268h1.752c0.074-1.151,0.144-2.313,0.205-3.479c0.603-11.389,0.521-22.964,0.521-22.964    s3.237,2.068,6.893,4.386c2.339,1.484,4.85,3.164,6.788,4.159c1.637,0.842,3.43,0.745,4.783-0.109    c1.047-0.661,1.576-1.679,3.168-3.667c5.58-6.975,14.825-19.686,14.825-19.686l-0.911-1.189c0,0,4.077-5.343,6.596-8.172    c1-1.123,2.054-1.549,2.054-1.549s3.588-1.311,6.282-2.552c1.972-0.907,3.277-1.851,3.277-1.851h9.282c0,0,1.4,0.045,2.23-0.571    c1.168-0.874,1.521-2.79,0.102-3.825c-0.961-0.699-2.729-0.686-2.729-0.686s-0.653-2.543-2.582-5.654    c-1.599-2.581-4.172-5.553-7.073-7.786c-8.127-6.254-16.209-5.878-16.209-5.878v-3.016c0,0,2.029-0.682,1.854-3.197    c-0.218-3.148-5.599-3.042-5.8,0.17c-0.18,2.865,2.078,3.107,2.078,3.107v2.976c0,0-8.25-0.392-16.05,5.482    c-6.932,5.219-9.973,13.878-9.973,13.878h-1.509c0,0-1.093,0.151-1.745,0.906c-0.805,0.933-0.644,2.514,0.225,3.353    c0.48,0.465,1.68,0.7,1.68,0.7h16.542c0,0-0.299,1.982,0.843,3.313c0.862,1.004,3.245,1.447,3.245,1.447s2.089,0.223,2.158,1.116    c0.086,1.073-1.842,2.851-1.842,2.851l-1.229-0.754l-9.799,13.093c0,0-1,1.454-2.01,1.602c-1.032,0.15-2.076-1.007-2.076-1.007    s-4.7-4.915-10.104-9.588c-5.307-4.59-11.319-8.938-11.319-8.938l0.595-0.437c0,0-1.623-1.246-3.462-2.311    c-2.057-1.191-4.353-2.213-4.353-2.213l-1.311-4.563c0,0,0.941-0.556,1.711-1.261c0.674-0.618,1.186-1.396,1.186-1.396    s1.82-0.347,3.085-1.383c2.357-1.928,1.649-3.666,1.702-3.582c-0.539-0.834-1.421-0.32-1.629,0.011    c-0.213,0.339-0.182,0.946-0.182,0.946s-0.055,0.476-0.375,0.821c-0.387,0.421-1.055,0.726-1.055,0.726s0.42-1.074,0.543-2.503    c0.182-2.135,0.092-4.915,0.092-4.915s0.588,0.017,0.84-0.342c0.221-0.314,0.074-1.047,0.074-1.047l0.039-2.26    c0,0,0.557-0.307,0.797-0.773c0.367-0.711,0.473-1.688,0.473-1.688l1.35-9.402c0,0,0.691-0.215,1.409-0.683    c0.769-0.503,1.567-1.261,1.567-1.261s2.263-0.539,3.375-1.949c1.493-1.893,1.627-5.498-0.819-7.303    c-1.448-1.069-4.185-0.865-4.185-0.865s-0.52-1.938-2.04-3.105c-1.872-1.439-5.597-1.846-7.924-1.162    c-1.882,0.553-3.563,2.047-3.563,2.047s-1.66-3.35-5.992-3.01c-4.605,0.361-6.108,3.564-6.108,3.564s-2.86-1.112-5.167-0.186    c-2.562,1.029-4.789,5.436-2.941,8.745c1.111,1.991,4.379,2.944,4.379,2.944l0.793,0.952c0,0,0.879,9.747,1.957,15.041    c0.436,2.142,1.733,3.089,1.733,3.089s-0.165,1.755-0.015,3.291c0.147,1.498,0.609,2.779,0.609,2.779s-0.498-0.252-0.901-0.754    c-0.319-0.397-0.567-1.07-0.567-1.07s-0.27-0.82-0.602-1.061c-0.379-0.273-0.824,0.029-0.824,0.029s-0.498,0.508-0.435,1.186    c0.11,1.178,0.948,2.471,2.516,3.373c0.995,0.572,2.123,0.678,2.123,0.678s0.491,0.766,1.173,1.404    c0.664,0.623,1.517,1.118,1.517,1.118l-1.048,5.173c0,0-0.438-0.319-0.902-0.223c-0.518,0.108-1.065,0.636-1.065,0.636    l-3.745,2.284c0,0-0.393,0.333-0.533,0.669c-0.145,0.347-0.038,0.696-0.038,0.696l-10.187,8.029c0,0-1.547,1.146-2.422,2.82    c-0.932,1.781-1.197,4.098-1.197,4.098L3.007,220.68c-0.05,0.433-0.087,0.862-0.093,1.254c-0.003,0.274,0.029,0.519,0.08,0.733    h0.022c0,0,0.024,0.102,0.06,0.239c0.164,0.482,0.392,0.771,0.392,0.771S4.086,224.794,5.313,226.374z M89.521,152.548    c0-0.701,0.567-1.27,1.27-1.27s1.27,0.568,1.27,1.27c0,0.702-0.567,1.27-1.27,1.27S89.521,153.249,89.521,152.548z     M75.995,164.428c8.648-6.013,21.305-5.95,30.563,0.678c6.428,4.601,9.205,12.615,9.205,12.615l-50.105-0.04    C65.657,177.681,69.036,169.267,75.995,164.428z M62.563,180.934c-0.395,0-0.714-0.319-0.714-0.714s0.319-0.715,0.714-0.715    h56.254c0.395,0,0.715,0.32,0.715,0.715c0,0.394-0.32,0.714-0.715,0.714H62.563z M93.667,182.64c0,0-2.031,0.477-3.891,0.658    c-0.588,0.057-2.314,0.105-3.334-0.041c-1.379-0.197-2.021-0.617-2.021-0.617H93.667z M86.815,187.901    c-1.043-2.438-3.5-1.852-4.863-2.807c-1.354-0.951-1.139-2.457-1.139-2.457h0.635c0,0,1.42,2.443,6.703,2.43    c6.504-0.016,10.791-2.311,10.791-2.311h6.229c-0.001,0.002-0.888,0.496-2.511,1.072c-1.583,0.561-3.883,1.184-5.541,2.556    c-1.646,1.36-2.803,3.177-4.057,4.73c-2.164,2.681-3.92,4.893-3.92,4.893l-4.442-3.451    C84.701,192.557,87.586,189.7,86.815,187.901z M30.242,202.28c-0.265,4.418-0.288,9.479-0.288,9.479s-1.58-2.349-2.966-4.705    c-1.392-2.364-2.589-4.736-2.589-4.736l5.594-9.918c0,0,0.195,1.025,0.443,1.952c0.203,0.764,0.469,1.46,0.469,1.46    S30.446,198.853,30.242,202.28z M31.28,183.665c-1.209-0.816-2.636-1.701-2.636-1.701l1.19-5.078c0,0,1.643,0.758,3.411,0.798    c1.638,0.038,3.413-0.639,3.413-0.639l1.35,4.324l-4.842,3.649C33.167,185.019,32.32,184.367,31.28,183.665z M31.422,188.313    c0-0.701,0.567-1.271,1.269-1.271s1.271,0.57,1.271,1.271c0,0.7-0.569,1.268-1.271,1.268S31.422,189.014,31.422,188.313z     M36.583,194.708c1.811,2.074,4.122,4.315,4.122,4.315l-3.927,8.054c0,0-2.59-6.731-4.023-11.381    c-0.754-2.455-0.817-4.33-0.817-4.33l1.983-0.118C33.92,191.248,35.019,192.915,36.583,194.708z M39.235,182.718    c0,0,1.451,0.49,2.73,1.169c1.01,0.534,1.912,1.29,1.912,1.29l-8.728,1.389l-0.159-0.436c0,0,1.053-0.909,2.148-1.789    C38.165,183.517,39.235,182.718,39.235,182.718z M21.821,148.839c0,0,2.467,0.824,4.381,0.169    c1.586-0.544,2.681-2.589,2.681-2.589s1.939,0.824,3.532,0.531c1.291-0.238,2.299-1.603,2.299-1.603s0.216-0.27,0.156-0.532    c-0.088-0.377-0.641-0.73-0.958-0.67c-0.339,0.063-0.704,0.409-0.704,0.409s-0.92,0.649-1.788,0.667    c-1.153,0.021-2.337-0.588-2.337-0.588s-0.443-0.271-0.719-0.22c-0.35,0.066-0.551,0.459-0.551,0.459s-0.697,1.743-1.848,2.261    c-2.592,1.164-4.619-0.816-4.529-0.726c-0.455-0.464-0.685-1.218-0.685-1.218s0.026-0.438-0.271-0.723    c-0.197-0.19-0.759-0.27-0.759-0.27s-2.213-0.361-3.26-1.877c-1.58-2.287-0.494-5.331,1.826-6.247    c0.688-0.271,1.484-0.454,2.157-0.354c0.845,0.125,1.497,0.584,1.497,0.584s0.494,0.521,0.938,0.736    c0.582,0.284,0.881-0.018,1.098-0.344c0.167-0.249,0.224-0.553,0.224-0.553s0.607-1.637,1.688-2.414    c1.837-1.322,4.204-1.111,5.828-0.362c0.963,0.444,1.727,1.508,1.727,1.508s0.189,0.786,0.541,1.279    c0.492,0.688,0.988,0.593,1.432,0.182c0.526-0.487,0.714-1.104,1.211-1.609c0.432-0.438,1.107-0.773,2.318-1.107    c2.85-0.788,5.063,0.04,6.518,1.177c0.796,0.622,1.271,1.823,1.271,1.823s0.016,0.511,0.141,0.878    c0.168,0.484,0.403,0.666,0.971,0.633c0.367-0.021,0.873-0.162,0.873-0.162s1.554-0.211,2.645,0.445    c1.262,0.756,1.953,2.871,0.936,4.6c-0.303,0.516-0.975,1.021-1.629,1.246c-0.812,0.28-1.594,0.215-1.594,0.215    s-1.109,1.895-2.904,2.26c-1.586,0.32-3.412,0.14-4.443-0.598c-1.025-0.731-1.262-2.018-1.262-2.018s-0.249-0.629-0.465-0.77    c-0.566-0.371-1.115-0.041-1.295,0.689c-0.041,0.396-0.07,2.363,2.529,3.904c1.49,0.883,3.795,0.778,3.795,0.778l-1.311,9.521    H23.133L21.821,148.839z M42.728,162.13c0,0-1.036-0.172-2.069-0.539c-1.029-0.365-2.058-0.93-2.058-0.93l-0.634-0.477h4.721    L42.728,162.13z M23.923,163.16c0,0-0.383-0.743-0.53-1.497c-0.15-0.773-0.064-1.558-0.064-1.558l8.965,0.079    c0,0-1.851,1.092-4.034,1.867C26.266,162.761,23.923,163.16,23.923,163.16z M27.811,173.515c0,0,1.084-0.146,2.082-0.721    c0.854-0.49,1.647-1.422,1.647-1.422s0.134-0.295,0.067-0.563c-0.107-0.433-0.44-0.807-1.116-0.668    c-0.388,0.08-0.776,0.438-0.776,0.438s-0.65,0.702-1.502,1.009c-0.855,0.308-1.91,0.22-1.91,0.22s-0.768-1.203-0.973-2.625    c-0.295-2.051-0.059-4.555-0.059-4.555s2.836-0.446,5.392-1.553c2.333-1.012,4.405-2.693,4.405-2.693s1.527,1.31,3.316,2.178    c1.498,0.727,3.311,1.035,3.311,1.035s0.242,3.012-0.102,5.405c-0.229,1.578-1.089,2.887-1.089,2.887s-0.838,0.068-1.713-0.22    c-0.87-0.287-1.778-0.93-1.778-0.93s-0.432-0.521-0.832-0.639c-0.354-0.102-1.134,0.276-0.941,1.09    c0.078,0.328,0.623,0.619,0.623,0.619s0.715,0.674,1.496,1.084c0.842,0.441,1.757,0.623,1.757,0.623s-0.792,0.861-2.003,1.468    c-2.064,1.034-5.233,1.101-7.469-0.058C28.504,174.334,27.811,173.515,27.811,173.515z M26.344,183.075    c0,0,0.877,0.147,1.865,0.715c1.26,0.723,2.695,1.903,2.695,1.903l-0.872,0.12c0,0-1.567,0.051-3.099-0.256    c-1.543-0.309-3.09-0.936-3.09-0.936L26.344,183.075z M18.087,217.769c-0.536,0.027-0.948,0.483-0.923,1.021l1.033,20.604h1.945    l-1.036-20.701C19.081,218.155,18.624,217.742,18.087,217.769z M142.788,345.646c0,0,1.271-0.179,1.721-0.55    c0.508-0.418,0.203-1.032,0.203-1.032s-4.469-5.66-10.223-7.548c-2.191-0.719-4.547-1.194-6.68-1.217    c-3.91-0.043-7.064,0.906-7.064,0.906s-0.619-4.541-1.738-9.543c-1.371-6.131-3.293-12.953-3.293-12.953s3.316,0.688,4.928,0.574    c0.568-0.04,0.728-0.972,0.728-0.972v-8.873c0,0,0.112-0.731-0.604-1.039c-0.601-0.254-2.054-0.092-2.054-0.092    s-1.897,0.116-3.627,0.941c-1.438,0.689-2.76,2.111-2.76,2.111s-1.16-1.568-2.507-2.594c-0.963-0.734-2.241-1.023-2.241-1.023    s-0.968-1.686-2.404-2.031c-1.604-0.387-3.698,0.563-3.698,0.563l-13.736-0.793l-5.369-3.955l-0.17-1.244    c0,0-4.428-4.477-8.693-5.59c-6.748-1.762-10.184,2.063-13.063,8.992c-2.443,5.883-3.793,13.611-3.793,13.611h-0.453v-5.822    l-6.047-0.057v-36.007c0,0-4.426-0.464-9.373-0.665c-6.096-0.246-12.955-0.239-12.955-0.239s-2.346-0.233-3.398,0.384    c-1.066,0.627-0.84,2.104-0.84,2.104l0.057,2.485h-9.102c0,0-0.998,0.027-1.283,0.3c-0.334,0.317,0.039,0.889,0.039,0.889    l4.918,5.313l-4.521,5.426c0,0-0.529,0.693-0.336,1.186c0.174,0.438,1.07,0.682,1.07,0.682s6.273,0.281,9.947,0.349    c1.523,0.026,2.602-0.122,2.602-0.122s1.25-0.257,1.754-0.786c0.615-0.646,0.506-1.588,0.506-1.588v-4.297    c0,0,4.588,0.006,9.154,0.129c4.891,0.131,9.781,0.381,9.781,0.381v24.079h-22.95v8.592h1.242v24.249h19.275    c0,0-2.105,3.14-3.348,7.668c-1.326,4.845-1.797,11.099-1.797,11.099s-0.02,0.768,0.213,1.248    c0.186,0.385,0.637,0.504,0.637,0.504h3.447c0,0,1.096,6.492,5.055,10.035c6.061,5.42,14.961,5.02,20.85-0.355    c3.727-3.4,4.563-9.396,4.563-9.396h26.735c0,0,3.601,0.085,6.574-0.661c2.494-0.627,4.446-2.107,4.446-2.107    s-0.168,7.99,5.152,12.6c8.344,7.228,18.162,2.976,22.16-1.616c5.176-5.945,3.363-14.224,2.332-16.509    c-1.375-3.043-4.379-5.383-4.379-5.383s0.734-0.235,1.604-0.381C141.245,345.79,142.788,345.646,142.788,345.646z M22.733,286.964    c-3.082-0.047-6.672-0.328-6.672-0.328l4.014-5.2c0,0,0.324-0.351,0.246-0.728c-0.092-0.438-0.586-0.912-0.586-0.912l-3.561-3.562    h7.348l0.057,6.048c0,0,0.078,0.571,0.428,1.126c0.328,0.52,0.93,1.023,0.93,1.023l2.146,1.694v0.677h0.002    C27.084,286.805,25.051,286.999,22.733,286.964z M27.196,284.034c0,0-0.551-0.24-0.986-0.705c-0.439-0.468-0.766-1.16-0.766-1.16    l1.809-0.34L27.196,284.034z M48.11,280.475c0,0-9.23-0.557-15.939-0.673c-3.83-0.067-6.84,0.275-6.84,0.275v-8.252    c0,0,1.836-0.552,4.467-0.531c6.633,0.049,18.313,0.701,18.313,0.701L48.11,280.475L48.11,280.475z M114.883,306.501    c1.593-1.086,4.505-1.155,4.505-1.155v7.178c0,0-2.959-0.226-4.359-1.029C113.704,310.732,112.806,307.921,114.883,306.501z     M104.099,302.518c1.139,0,2.063,0.924,2.063,2.063s-0.924,2.063-2.063,2.063c-1.142,0-2.063-0.924-2.063-2.063    C102.036,303.439,102.958,302.518,104.099,302.518z M103.017,308.313c1.416,0.343,3.088-0.197,3.088-0.197    s3.344,5.791,3.938,13.125c1.92,23.633-3.363,26.879-4.104,27.442c-2.568,1.957-5.994,1.824-5.994,1.824l-0.228-0.563l3.109-1.244    l-13.229-25.832l-15.43-4.353l2.146-13.734l2.035,1.017l0.621-1.13l6.896,3.448l14.864-1.301    C100.735,306.813,101.756,308.007,103.017,308.313z M81.319,341.636c0.307-2.893,0.932-6.051,0.932-6.051h0.793    c0,0,0.594-0.277,0.822-0.6c0.32-0.447,0.309-0.982,0.309-0.982l10.287,16.506l-10.457-0.057c0,0-1.609,0.059-2.221-0.838    c-0.805-1.185-0.664-3.402-0.664-3.402S81.067,344.003,81.319,341.636z M49.524,334.001v-4.691H82.14v4.691H49.524z     M83.892,329.989c0,0,0.18-1.351-0.355-2.119c-0.281-0.402-1.455-0.48-1.455-0.48H65.577c0,0-3.66-0.475-5.703-1.707    c-1.783-1.073-1.984-2.93-1.984-2.93l15.094-2.77l15.262,4.182l12.321,23.797l-4.805,1.584L83.892,329.989z M87.282,302.234    l13.113,0.849c0,0-0.16,0.44-0.211,0.918c-0.062,0.563-0.017,1.174-0.017,1.174l-13.849,1.188l-6.555-3.279l1.92-4.861    L87.282,302.234z M59.565,307.684c1.98-8.427,5.213-14.158,7.518-15.621c3.551-2.25,7.715,0.099,9.318,1.024    c2.035,1.174,4.1,2.931,4.1,2.931l-2.885,7.293l-5.82-3.166l-0.793,1.414l3.676,2.26l-2.262,14.526l-14.811,2.713    C57.606,321.058,58.061,314.081,59.565,307.684z M55.12,314.614h1.188c0,0-0.238,1.659-0.311,3.329    c-0.068,1.652-0.066,5.214,0.627,6.574c0.816,1.605,2.566,3.039,2.566,3.039h-4.07V314.614z M27.084,308.171h27.301v4.86H27.084    V308.171z M28.102,337.337v-4.297h11.361V317.27H28.102v-2.262l25.266-0.111v12.66h-3.223c0,0-1.033-0.059-1.684,0.347    c-0.438,0.272-0.576,1.067-0.576,1.067v4.974c0,0-0.039,0.535,0.252,0.942c0.273,0.383,0.877,0.642,0.877,0.642l-1.525,1.809    H28.102z M28.215,331.231v-12.152h9.496v12.152H28.215z M69.395,368.104c-4.879,4.5-13.119,4.716-18.154,0.24    c-3.643-3.237-4.543-8.455-4.543-8.455l3.053,0.058c0,0,0.809,4.018,3.514,6.272c4.176,3.479,9.926,3.166,13.684-0.039    c2.457-2.096,3.717-6.35,3.717-6.35h2.77C73.434,359.833,72.7,365.056,69.395,368.104z M57.196,362.712    c1.947,1.34,4.373,1.121,6.031-0.113c1.188-0.883,1.953-2.596,1.953-2.596h3.561c0,0-0.959,3.266-2.961,4.902    c-2.922,2.389-7.744,2.771-11.236,0.012c-2.24-1.773-2.816-4.914-2.816-4.914h3.336C55.063,360.003,55.807,361.755,57.196,362.712    z M57.155,360.003h6.047c0,0-0.658,1.141-1.869,1.51c-0.619,0.187-2.023,0.209-2.863-0.184    C57.512,360.884,57.155,360.003,57.155,360.003z M42.458,357.911c0,0,0.355-7.625,5.541-12.832    c6.633-6.662,17.201-7.203,24.811,0.457c4.188,4.213,5.089,12.375,5.089,12.375H42.458z M107.599,357.567    c-4.257,0.655-9.482,0.594-14.271,0.618c-7.429,0.041-13.791-0.104-13.791-0.104s-0.554-8.537-5.217-13.603    c-8.703-9.45-19.354-5.797-21.057-5.063c-4.439,1.906-8.148,5.609-8.148,5.609s0.566-2.115,1.957-4.253    c1.592-2.448,4.033-4.961,4.033-4.961H80.33c0,0-0.695,3.248-0.929,6.386c-0.313,4.229-0.18,8.065,1.668,9.262    c1.769,1.141,4.742,0.633,4.742,0.633s8.541,0.156,14.019,0.074c2.746-0.043,4.465-0.357,4.465-0.357s4.134-1.221,6.177-6.834    c2.293-6.295,1.895-22.719,0.442-29.659c-0.979-4.688-3.735-8.441-3.735-8.441s0.247-0.368,0.396-0.776    c0.188-0.513,0.282-1.089,0.282-1.089s1.502,0.936,2.425,2.129c1.428,1.85,2.959,3.914,5.887,15.42    c2.25,8.836,4.031,18.886,3.302,23.34C118.97,348.938,115.267,356.384,107.599,357.567z M142.258,358.591    c-0.271,11.265-11.094,13.349-14.565,12.984c-8.539-0.896-10.976-6.404-11.963-9.64c-0.888-2.896-0.41-5.946-0.41-5.946    s0.764-0.746,1.596-1.375c0.992-0.746,2.076-1.396,2.076-1.396s-2.002,6.849,0.785,10.629c5.303,7.195,13.119,5.595,17.145,0.951    c4.322-4.981,2.139-11.438-1.381-14.438c-2.578-2.197-7.051-2.627-7.051-2.627l0.168-0.451l6.783-0.791    C135.442,346.493,142.459,350.351,142.258,358.591z M120.01,358.308c0-4.745,3.847-8.592,8.593-8.592    c4.744,0,8.59,3.847,8.59,8.592c0,4.744-3.846,8.593-8.59,8.593C123.856,366.899,120.01,363.052,120.01,358.308z M126.228,345.872    l-6.049,4.182c0,0,1.112-2.688,1.393-5.53c0.313-3.187-0.205-6.564-0.205-6.564s4.762-1.762,11.85,0.129    c4.926,1.313,8.781,5.805,8.781,5.805L126.228,345.872z M22.563,346.099c0-0.563-0.457-1.018-1.02-1.018H10.522    c-0.561,0-1.018,0.455-1.018,1.018c0,0.562,0.457,1.017,1.018,1.017h11.021C22.106,347.114,22.563,346.659,22.563,346.099z     M4.079,355.255h6.33c0.531,0,0.961-0.43,0.961-0.961s-0.43-0.961-0.961-0.961h-6.33c-0.531,0-0.961,0.43-0.961,0.961    S3.547,355.255,4.079,355.255z M9.336,357.458c-0.502,0-0.904,0.406-0.904,0.906c0,0.498,0.404,0.901,0.904,0.901h10.625    c0.5,0,0.904-0.403,0.904-0.901c0-0.5-0.404-0.906-0.904-0.906H9.336z M92.114,276.521c0.553-0.313,0.885-1.269-0.014-1.627    c-0.509-0.205-1.429,0.039-1.429,0.039l-5.198,0.508c0,0-0.033-1.199-0.177-2.387c0.07,0.582,0.193-4.769-3.918-5.877    c-2.969-0.799-7.203-0.484-9.85,0.248c-2.621,0.725-3.668,1.861-4.152,2.73c-1.607,2.878-0.502,7.377-0.502,7.377    s-0.67,0.345-0.604,0.705c0.074,0.4,0.887,0.82,0.887,0.82s-0.17,4.303,1.9,6.736c3.092,3.633,10.16,5.684,14.679,0.004    c2.361-2.972,1.564-8.38,1.564-8.38l5.652-0.733C90.956,276.688,91.647,276.786,92.114,276.521z M69.137,281.718v-2.825    l5.201-0.565c0,0-0.1,1.127-1.188,1.835C71.694,281.111,69.137,281.718,69.137,281.718z M82.515,284.096    c-3.06,4.745-8.071,3.122-9.87,2.139c-1.723-0.944-2.66-2.82-2.66-2.82s2.752-0.885,4.734-2.449c1.384-1.09,2.22-3.033,2.22-3.033    l6.612-0.621C83.551,277.309,84.131,281.583,82.515,284.096z M68.573,277.193l-0.34-2.883c0,0.002-0.01-2.297,0.992-3.524    c1.111-1.365,3.248-1.675,3.248-1.675l6.273-0.508c0,0,2.541,0.074,3.446,1.285c1.47,1.963,1.584,5.439,1.584,5.439    L68.573,277.193z M128.601,363.563c2.903,0,5.258-2.354,5.258-5.258c0-2.901-2.355-5.256-5.258-5.256    c-2.904,0-5.259,2.354-5.259,5.256C123.342,361.21,125.696,363.563,128.601,363.563z M128.601,354.915    c1.873,0,3.391,1.518,3.391,3.391s-1.518,3.394-3.391,3.394s-3.392-1.521-3.392-3.394S126.728,354.915,128.601,354.915z     M51.079,349.997h18.256c0.484,0,0.877-0.391,0.877-0.875s-0.393-0.877-0.877-0.877H51.079c-0.484,0-0.877,0.393-0.877,0.877    S50.594,349.997,51.079,349.997z M71.426,352.825H48.477c-0.514,0-0.932,0.418-0.932,0.932c0,0.517,0.418,0.933,0.932,0.933    h22.949c0.516,0,0.934-0.416,0.934-0.933C72.36,353.243,71.942,352.825,71.426,352.825z"/>
	</g>
</g>
</svg>