<?xml version="1.0" encoding="utf-8"?>
<!-- Generator: Adobe Illustrator 17.1.0, SVG Export Plug-In . SVG Version: 6.00 Build 0)  -->
<!DOCTYPE svg PUBLIC "-//W3C//DTD SVG 1.1//EN" "http://www.w3.org/Graphics/SVG/1.1/DTD/svg11.dtd">
<svg version="1.1" id="Layer_1" xmlns="http://www.w3.org/2000/svg" xmlns:xlink="http://www.w3.org/1999/xlink" x="0px" y="0px"
	 viewBox="0 0 566.9 566.9" enable-background="new 0 0 566.9 566.9" xml:space="preserve">
<g>
	<path fill="#009444" d="M351.3,266.7c0,27.7-22.5,50.1-50.1,50.1h-0.2v-32.9h30.8V262h-30.8v-22.8h42.2
		C348.3,247.1,351.3,256.5,351.3,266.7z"/>
	<path fill="#009444" d="M200.9,257.5l0-19.4h16.7c7.7,0,11.2,3.1,11.2,9.8c0,6.5-3.5,9.6-11.1,9.6H200.9z"/>
	<path fill="#009444" d="M231.3,288.9c0,7.3-4.6,11.3-12.7,11.3h-17.7l0-22.5h17C226.8,277.7,231.3,281.5,231.3,288.9z"/>
	<path fill="#009444" d="M301.1,216.2h-23.7v100.6h-31.1c8.6-4.9,13-13.1,13-24.3c0-12.7-5.5-20.1-18.4-25
		c10.8-5,15.3-11.7,15.3-22.7c0-18.2-12.6-28.6-34.8-28.6h-20.6c0.2-27.5,22.6-49.8,50.1-49.8C278.6,166.4,301,188.7,301.1,216.2z"
		/>
</g>
<g>
	<path d="M221.9,353.1l10.3-12.2h-11.8l-8.4,10.7v-24.5h-11.1v45h11.1v-8.6l2.5-2.8l6.4,11.4H233L221.9,353.1z"/>
	<path d="M237.1,340.9v31.3h11.1v-31.3H237.1z M242.7,326.4c-3.6,0-6.2,2.5-6.2,5.9c0,3.4,2.7,5.9,6.1,5.9c3.4,0,6.1-2.6,6.1-5.9
		C248.7,329,246.1,326.4,242.7,326.4z"/>
	<path d="M273,363c-1.2,0.7-1.9,0.9-2.8,0.9c-1.5,0-2.1-0.9-2.1-3.1v-11.5h6v-8.3h-6v-9.5l-11.1,3.9v5.5h-4.1v8.3h4.1v12.7
		c0,7.1,3.6,11,10.3,11c3.1,0,5.7-0.8,8-2.5L273,363z"/>
	<path d="M298.5,360c-1,3.2-2.5,4.6-5,4.6c-3.5,0-5.3-2.8-5.3-8.2c0-5.3,1.7-8,5.1-8c2.3,0,3.2,1,4.4,4.6l9.3-3.9
		c-2.9-6-7.5-9-14.1-9c-9.6,0-16,6.8-16,16.8c0,9.9,6.1,16.1,16.1,16.1c6.8,0,11.4-2.9,14.2-8.9L298.5,360z"/>
	<path d="M332.5,340.1c-4.4,0-7.6,1.9-9.8,5.8v-18.7h-11.1v45h11.1V354c0-3.6,1.6-5.5,4.6-5.5c2.6,0,3.9,1.6,3.9,4.8v18.9h11.1
		v-20.6C342.2,344.3,338.7,340.1,332.5,340.1z"/>
	<path d="M379.4,356.6c0-10.3-5.7-16.5-15.3-16.5c-9.7,0-16.4,6.8-16.4,16.6c0,9.7,6.8,16.2,16.9,16.2c6.5,0,11.3-2.5,14.2-7.2
		l-8.5-4.1c-1.3,2.2-3,3.2-5.6,3.2c-3.4,0-5.1-1.6-5.8-5.5h20.6V356.6z M358.9,353.2c0.7-3.7,2.1-5.2,5.1-5.2c3,0,4.4,1.6,4.7,5.2
		H358.9z"/>
	<path d="M406.3,340.1c-4.4,0-7.6,1.9-9.8,5.8v-5h-11.1v31.3h11.1v-18.1c0-3.6,1.6-5.5,4.5-5.5c2.6,0,3.8,1.6,3.8,4.8v18.8h11.1
		v-20.6C415.9,344.3,412.4,340.1,406.3,340.1z"/>
</g>
</svg>
