<svg xmlns="http://www.w3.org/2000/svg" viewBox="0 0 260 260" width="300" height="300">
	<style>
		tspan { white-space:pre }
		.shp0 { fill: #009444 } 
		.shp1 { fill: #000000 } 
	</style>
	<g id="Layer">
		<path id="Layer" class="shp0" d="M173.3 127.7C173.3 155.4 150.8 177.8 123.2 177.8L123 177.8L123 144.9L153.8 144.9L153.8 123L123 123L123 100.2L165.2 100.2C170.3 108.1 173.3 117.5 173.3 127.7Z" />
		<path id="Layer" class="shp0" d="M22.9 118.5L22.9 99.1L39.6 99.1C47.3 99.1 50.8 102.2 50.8 108.9C50.8 115.4 47.3 118.5 39.7 118.5L22.9 118.5Z" />
		<path id="Layer" class="shp0" d="M53.3 149.9C53.3 157.2 48.7 161.2 40.6 161.2L22.9 161.2L22.9 138.7L39.9 138.7C48.8 138.7 53.3 142.5 53.3 149.9Z" />
		<path id="Layer" class="shp0" d="M123.1 77.2L99.4 77.2L99.4 177.8L68.3 177.8C76.9 172.9 81.3 164.7 81.3 153.5C81.3 140.8 75.8 133.4 62.9 128.5C73.7 123.5 78.2 116.8 78.2 105.8C78.2 87.6 65.6 77.2 43.4 77.2L22.8 77.2C23 49.7 45.4 27.4 72.9 27.4C100.6 27.4 123 49.7 123.1 77.2Z" />
	</g>
	<g id="Layer">
		<path id="Layer" class="shp1" d="M43.9 214.1L54.2 201.9L42.4 201.9L34 212.6L34 188.1L22.9 188.1L22.9 233.1L34 233.1L34 224.5L36.5 221.7L42.9 233.1L55 233.1L43.9 214.1Z" />
		<path id="Layer" class="shp1" d="M59.1 201.9L59.1 233.2L70.2 233.2L70.2 201.9L59.1 201.9ZM64.7 187.4C61.1 187.4 58.5 189.9 58.5 193.3C58.5 196.7 61.2 199.2 64.6 199.2C68 199.2 70.7 196.6 70.7 193.3C70.7 190 68.1 187.4 64.7 187.4Z" />
		<path id="Layer" class="shp1" d="M95 224C93.8 224.7 93.1 224.9 92.2 224.9C90.7 224.9 90.1 224 90.1 221.8L90.1 210.3L96.1 210.3L96.1 202L90.1 202L90.1 192.5L79 196.4L79 201.9L74.9 201.9L74.9 210.2L79 210.2L79 222.9C79 230 82.6 233.9 89.3 233.9C92.4 233.9 95 233.1 97.3 231.4L95 224Z" />
		<path id="Layer" class="shp1" d="M120.5 221C119.5 224.2 118 225.6 115.5 225.6C112 225.6 110.2 222.8 110.2 217.4C110.2 212.1 111.9 209.4 115.3 209.4C117.6 209.4 118.5 210.4 119.7 214L129 210.1C126.1 204.1 121.5 201.1 114.9 201.1C105.3 201.1 98.9 207.9 98.9 217.9C98.9 227.8 105 234 115 234C121.8 234 126.4 231.1 129.2 225.1L120.5 221Z" />
		<path id="Layer" class="shp1" d="M154.5 201.1C150.1 201.1 146.9 203 144.7 206.9L144.7 188.2L133.6 188.2L133.6 233.2L144.7 233.2L144.7 215C144.7 211.4 146.3 209.5 149.3 209.5C151.9 209.5 153.2 211.1 153.2 214.3L153.2 233.2L164.3 233.2L164.3 212.6C164.2 205.3 160.7 201.1 154.5 201.1Z" />
		<path id="Layer" fill-rule="evenodd" class="shp1" d="M201.5 217.6L201.5 220.3L180.9 220.3C181.6 224.2 183.3 225.8 186.7 225.8C189.3 225.8 191 224.8 192.3 222.6L200.8 226.7C197.9 231.4 193.1 233.9 186.6 233.9C176.5 233.9 169.7 227.4 169.7 217.7C169.7 207.9 176.4 201.1 186.1 201.1C195.7 201.1 201.4 207.3 201.4 217.6L201.5 217.6ZM190.7 214.2C190.4 210.6 189 209 186 209C183 209 181.6 210.5 180.9 214.2L190.7 214.2Z" />
		<path id="Layer" class="shp1" d="M228.3 201.1C223.9 201.1 220.7 203 218.5 206.9L218.5 201.9L207.4 201.9L207.4 233.2L218.5 233.2L218.5 215.1C218.5 211.5 220.1 209.6 223 209.6C225.6 209.6 226.8 211.2 226.8 214.4L226.8 233.2L237.9 233.2L237.9 212.6C237.9 205.3 234.4 201.1 228.3 201.1Z" />
	</g>
</svg>